<svg xmlns="http://www.w3.org/2000/svg" xmlns:xlink="http://www.w3.org/1999/xlink" width="240" zoomAndPan="magnify" viewBox="0 0 180 30.000001" height="40" preserveAspectRatio="xMidYMid meet" version="1.0"><defs><g/></defs><g fill="#222222" fill-opacity="1"><g transform="translate(20.82157, 20.806456)"><g><path d="M 0.875 1.625 C 0.757812 1.625 0.660156 1.582031 0.578125 1.5 C 0.503906 1.414062 0.46875 1.320312 0.46875 1.21875 C 0.46875 1.15625 0.476562 1.09375 0.5 1.03125 L 7.078125 -14.765625 C 7.117188 -14.867188 7.1875 -14.96875 7.28125 -15.0625 C 7.375 -15.15625 7.519531 -15.203125 7.71875 -15.203125 L 9.203125 -15.203125 C 9.316406 -15.203125 9.410156 -15.160156 9.484375 -15.078125 C 9.566406 -14.992188 9.609375 -14.898438 9.609375 -14.796875 C 9.609375 -14.742188 9.597656 -14.679688 9.578125 -14.609375 L 2.984375 1.1875 C 2.953125 1.269531 2.882812 1.363281 2.78125 1.46875 C 2.675781 1.570312 2.53125 1.625 2.34375 1.625 Z M 0.875 1.625 "/></g></g></g><g fill="#222222" fill-opacity="1"><g transform="translate(30.901459, 20.806456)"><g><path d="M 2.9375 -7.578125 L 1.6875 -8.53125 C 1.59375 -8.59375 1.539062 -8.679688 1.53125 -8.796875 C 1.519531 -8.910156 1.539062 -9.015625 1.59375 -9.109375 C 1.59375 -9.117188 1.628906 -9.160156 1.703125 -9.234375 L 3 -10.34375 L 1.296875 -10.484375 C 1.242188 -10.492188 1.207031 -10.5 1.1875 -10.5 C 1.164062 -10.507812 1.148438 -10.515625 1.140625 -10.515625 C 1.046875 -10.546875 0.96875 -10.613281 0.90625 -10.71875 C 0.851562 -10.832031 0.84375 -10.945312 0.875 -11.0625 L 1.359375 -12.546875 C 1.378906 -12.648438 1.445312 -12.726562 1.5625 -12.78125 C 1.675781 -12.832031 1.78125 -12.847656 1.875 -12.828125 C 1.90625 -12.828125 1.957031 -12.804688 2.03125 -12.765625 L 3.484375 -11.890625 L 3.109375 -13.546875 C 3.097656 -13.578125 3.09375 -13.601562 3.09375 -13.625 C 3.09375 -13.65625 3.09375 -13.679688 3.09375 -13.703125 C 3.09375 -13.796875 3.132812 -13.890625 3.21875 -13.984375 C 3.300781 -14.078125 3.398438 -14.125 3.515625 -14.125 L 5.09375 -14.125 C 5.207031 -14.125 5.304688 -14.078125 5.390625 -13.984375 C 5.472656 -13.890625 5.515625 -13.796875 5.515625 -13.703125 C 5.515625 -13.679688 5.515625 -13.65625 5.515625 -13.625 C 5.515625 -13.601562 5.507812 -13.578125 5.5 -13.546875 L 5.109375 -11.875 L 6.578125 -12.765625 C 6.648438 -12.804688 6.703125 -12.828125 6.734375 -12.828125 C 6.835938 -12.847656 6.941406 -12.832031 7.046875 -12.78125 C 7.160156 -12.726562 7.226562 -12.648438 7.25 -12.546875 L 7.734375 -11.0625 C 7.765625 -10.945312 7.753906 -10.832031 7.703125 -10.71875 C 7.648438 -10.613281 7.570312 -10.546875 7.46875 -10.515625 C 7.457031 -10.515625 7.441406 -10.507812 7.421875 -10.5 C 7.398438 -10.5 7.363281 -10.492188 7.3125 -10.484375 L 5.609375 -10.328125 L 6.90625 -9.234375 C 6.976562 -9.160156 7.015625 -9.117188 7.015625 -9.109375 C 7.085938 -9.015625 7.113281 -8.910156 7.09375 -8.796875 C 7.082031 -8.679688 7.023438 -8.59375 6.921875 -8.53125 L 5.671875 -7.578125 C 5.566406 -7.523438 5.457031 -7.507812 5.34375 -7.53125 C 5.226562 -7.550781 5.132812 -7.609375 5.0625 -7.703125 C 5.050781 -7.710938 5.039062 -7.726562 5.03125 -7.75 C 5.019531 -7.769531 5 -7.789062 4.96875 -7.8125 L 4.296875 -9.40625 L 3.640625 -7.8125 C 3.628906 -7.789062 3.613281 -7.769531 3.59375 -7.75 C 3.570312 -7.726562 3.554688 -7.710938 3.546875 -7.703125 C 3.492188 -7.609375 3.40625 -7.550781 3.28125 -7.53125 C 3.15625 -7.507812 3.039062 -7.523438 2.9375 -7.578125 Z M 2.9375 -7.578125 "/></g></g></g><g fill="#222222" fill-opacity="1"><g transform="translate(39.499745, 20.806456)"><g><path d="M 4.203125 0.1875 C 3.398438 0.1875 2.726562 0.09375 2.1875 -0.09375 C 1.65625 -0.28125 1.238281 -0.507812 0.9375 -0.78125 C 0.644531 -1.050781 0.441406 -1.320312 0.328125 -1.59375 C 0.222656 -1.875 0.1875 -2.109375 0.21875 -2.296875 C 0.238281 -2.441406 0.300781 -2.554688 0.40625 -2.640625 C 0.519531 -2.734375 0.632812 -2.78125 0.75 -2.78125 L 2.625 -2.78125 C 2.664062 -2.78125 2.707031 -2.773438 2.75 -2.765625 C 2.789062 -2.753906 2.820312 -2.722656 2.84375 -2.671875 C 2.988281 -2.554688 3.132812 -2.421875 3.28125 -2.265625 C 3.425781 -2.117188 3.609375 -1.992188 3.828125 -1.890625 C 4.046875 -1.785156 4.332031 -1.734375 4.6875 -1.734375 C 5.101562 -1.734375 5.476562 -1.820312 5.8125 -2 C 6.15625 -2.175781 6.359375 -2.425781 6.421875 -2.75 C 6.472656 -2.976562 6.445312 -3.171875 6.34375 -3.328125 C 6.238281 -3.484375 6.007812 -3.625 5.65625 -3.75 C 5.3125 -3.882812 4.789062 -4.023438 4.09375 -4.171875 C 3.4375 -4.328125 2.890625 -4.535156 2.453125 -4.796875 C 2.023438 -5.054688 1.726562 -5.378906 1.5625 -5.765625 C 1.394531 -6.160156 1.367188 -6.640625 1.484375 -7.203125 C 1.585938 -7.703125 1.84375 -8.179688 2.25 -8.640625 C 2.664062 -9.109375 3.21875 -9.492188 3.90625 -9.796875 C 4.601562 -10.097656 5.414062 -10.25 6.34375 -10.25 C 7.050781 -10.25 7.65625 -10.160156 8.15625 -9.984375 C 8.664062 -9.816406 9.070312 -9.597656 9.375 -9.328125 C 9.675781 -9.066406 9.882812 -8.796875 10 -8.515625 C 10.125 -8.242188 10.171875 -8.003906 10.140625 -7.796875 C 10.117188 -7.648438 10.054688 -7.53125 9.953125 -7.4375 C 9.859375 -7.351562 9.753906 -7.3125 9.640625 -7.3125 L 7.90625 -7.3125 C 7.84375 -7.3125 7.785156 -7.320312 7.734375 -7.34375 C 7.691406 -7.375 7.660156 -7.410156 7.640625 -7.453125 C 7.492188 -7.535156 7.359375 -7.648438 7.234375 -7.796875 C 7.109375 -7.941406 6.941406 -8.0625 6.734375 -8.15625 C 6.535156 -8.257812 6.265625 -8.3125 5.921875 -8.3125 C 5.492188 -8.3125 5.148438 -8.21875 4.890625 -8.03125 C 4.628906 -7.84375 4.46875 -7.609375 4.40625 -7.328125 C 4.351562 -7.148438 4.367188 -6.984375 4.453125 -6.828125 C 4.535156 -6.671875 4.742188 -6.523438 5.078125 -6.390625 C 5.410156 -6.265625 5.929688 -6.132812 6.640625 -6 C 7.484375 -5.84375 8.128906 -5.609375 8.578125 -5.296875 C 9.035156 -4.992188 9.332031 -4.640625 9.46875 -4.234375 C 9.601562 -3.828125 9.625 -3.390625 9.53125 -2.921875 C 9.40625 -2.316406 9.113281 -1.773438 8.65625 -1.296875 C 8.195312 -0.828125 7.585938 -0.460938 6.828125 -0.203125 C 6.078125 0.0546875 5.203125 0.1875 4.203125 0.1875 Z M 4.203125 0.1875 "/></g></g></g><g fill="#222222" fill-opacity="1"><g transform="translate(50.005277, 20.806456)"><g><path d="M 4.6875 0.1875 C 3.675781 0.1875 2.832031 0.0078125 2.15625 -0.34375 C 1.476562 -0.695312 1 -1.203125 0.71875 -1.859375 C 0.4375 -2.515625 0.363281 -3.28125 0.5 -4.15625 C 0.53125 -4.414062 0.578125 -4.707031 0.640625 -5.03125 C 0.710938 -5.363281 0.789062 -5.65625 0.875 -5.90625 C 1.101562 -6.789062 1.460938 -7.554688 1.953125 -8.203125 C 2.441406 -8.859375 3.070312 -9.363281 3.84375 -9.71875 C 4.625 -10.070312 5.539062 -10.25 6.59375 -10.25 C 7.582031 -10.25 8.414062 -10.070312 9.09375 -9.71875 C 9.769531 -9.363281 10.257812 -8.859375 10.5625 -8.203125 C 10.875 -7.554688 10.957031 -6.789062 10.8125 -5.90625 C 10.757812 -5.65625 10.703125 -5.363281 10.640625 -5.03125 C 10.578125 -4.707031 10.515625 -4.414062 10.453125 -4.15625 C 10.210938 -3.28125 9.847656 -2.515625 9.359375 -1.859375 C 8.878906 -1.203125 8.253906 -0.695312 7.484375 -0.34375 C 6.722656 0.0078125 5.789062 0.1875 4.6875 0.1875 Z M 4.9375 -1.953125 C 5.5625 -1.953125 6.085938 -2.144531 6.515625 -2.53125 C 6.941406 -2.914062 7.253906 -3.488281 7.453125 -4.25 C 7.503906 -4.445312 7.5625 -4.707031 7.625 -5.03125 C 7.6875 -5.351562 7.738281 -5.609375 7.78125 -5.796875 C 7.90625 -6.546875 7.859375 -7.117188 7.640625 -7.515625 C 7.421875 -7.910156 6.992188 -8.109375 6.359375 -8.109375 C 5.734375 -8.109375 5.207031 -7.910156 4.78125 -7.515625 C 4.351562 -7.117188 4.050781 -6.546875 3.875 -5.796875 C 3.820312 -5.609375 3.753906 -5.351562 3.671875 -5.03125 C 3.597656 -4.707031 3.546875 -4.445312 3.515625 -4.25 C 3.398438 -3.488281 3.445312 -2.914062 3.65625 -2.53125 C 3.863281 -2.144531 4.289062 -1.953125 4.9375 -1.953125 Z M 4.9375 -1.953125 "/></g></g></g><g fill="#222222" fill-opacity="1"><g transform="translate(61.613606, 20.806456)"><g><path d="M 1.046875 3.671875 C 0.890625 3.671875 0.785156 3.601562 0.734375 3.46875 C 0.679688 3.332031 0.707031 3.195312 0.8125 3.0625 L 3.171875 -0.65625 L 1.28125 -9.5 C 1.25 -9.632812 1.273438 -9.757812 1.359375 -9.875 C 1.441406 -10 1.582031 -10.0625 1.78125 -10.0625 L 3.546875 -10.0625 C 3.710938 -10.0625 3.828125 -10.019531 3.890625 -9.9375 C 3.953125 -9.863281 3.988281 -9.773438 4 -9.671875 L 5.1875 -3.6875 L 8.96875 -9.671875 C 9.039062 -9.773438 9.125 -9.863281 9.21875 -9.9375 C 9.3125 -10.019531 9.441406 -10.0625 9.609375 -10.0625 L 11.609375 -10.0625 C 11.742188 -10.0625 11.84375 -10 11.90625 -9.875 C 11.976562 -9.757812 11.96875 -9.628906 11.875 -9.484375 L 3.640625 3.28125 C 3.578125 3.382812 3.492188 3.472656 3.390625 3.546875 C 3.285156 3.628906 3.15625 3.671875 3 3.671875 Z M 1.046875 3.671875 "/></g></g></g><g fill="#222222" fill-opacity="1"><g transform="translate(73.067152, 20.806456)"><g><path d="M 0.484375 0 C 0.359375 0 0.253906 -0.0390625 0.171875 -0.125 C 0.0976562 -0.21875 0.0703125 -0.335938 0.09375 -0.484375 L 2.03125 -9.578125 C 2.050781 -9.710938 2.117188 -9.828125 2.234375 -9.921875 C 2.359375 -10.015625 2.484375 -10.0625 2.609375 -10.0625 L 4.40625 -10.0625 C 4.550781 -10.0625 4.65625 -10.015625 4.71875 -9.921875 C 4.78125 -9.828125 4.800781 -9.710938 4.78125 -9.578125 L 4.640625 -8.921875 C 4.867188 -9.160156 5.113281 -9.378906 5.375 -9.578125 C 5.644531 -9.785156 5.957031 -9.945312 6.3125 -10.0625 C 6.664062 -10.1875 7.082031 -10.25 7.5625 -10.25 C 8.3125 -10.25 8.921875 -10.097656 9.390625 -9.796875 C 9.867188 -9.503906 10.195312 -9.085938 10.375 -8.546875 C 10.78125 -9.046875 11.25 -9.453125 11.78125 -9.765625 C 12.320312 -10.085938 12.945312 -10.25 13.65625 -10.25 C 14.363281 -10.25 14.96875 -10.097656 15.46875 -9.796875 C 15.976562 -9.492188 16.332031 -9.03125 16.53125 -8.40625 C 16.738281 -7.78125 16.738281 -6.976562 16.53125 -6 L 15.359375 -0.484375 C 15.335938 -0.335938 15.269531 -0.21875 15.15625 -0.125 C 15.039062 -0.0390625 14.921875 0 14.796875 0 L 12.890625 0 C 12.742188 0 12.632812 -0.0390625 12.5625 -0.125 C 12.488281 -0.21875 12.46875 -0.335938 12.5 -0.484375 L 13.640625 -5.84375 C 13.753906 -6.375 13.773438 -6.785156 13.703125 -7.078125 C 13.628906 -7.378906 13.484375 -7.597656 13.265625 -7.734375 C 13.054688 -7.867188 12.800781 -7.9375 12.5 -7.9375 C 12.238281 -7.9375 11.957031 -7.867188 11.65625 -7.734375 C 11.363281 -7.597656 11.097656 -7.378906 10.859375 -7.078125 C 10.617188 -6.785156 10.441406 -6.375 10.328125 -5.84375 L 9.1875 -0.484375 C 9.164062 -0.335938 9.097656 -0.21875 8.984375 -0.125 C 8.878906 -0.0390625 8.757812 0 8.625 0 L 6.71875 0 C 6.570312 0 6.460938 -0.0390625 6.390625 -0.125 C 6.316406 -0.21875 6.296875 -0.335938 6.328125 -0.484375 L 7.46875 -5.84375 C 7.582031 -6.375 7.597656 -6.785156 7.515625 -7.078125 C 7.441406 -7.378906 7.296875 -7.597656 7.078125 -7.734375 C 6.867188 -7.867188 6.617188 -7.9375 6.328125 -7.9375 C 6.054688 -7.9375 5.769531 -7.867188 5.46875 -7.734375 C 5.175781 -7.597656 4.910156 -7.378906 4.671875 -7.078125 C 4.429688 -6.785156 4.257812 -6.378906 4.15625 -5.859375 L 3 -0.484375 C 2.96875 -0.335938 2.898438 -0.21875 2.796875 -0.125 C 2.703125 -0.0390625 2.582031 0 2.4375 0 Z M 0.484375 0 "/></g></g></g><g fill="#222222" fill-opacity="1"><g transform="translate(90.65376, 20.806456)"><g><path d="M 3.8125 0.1875 C 3.164062 0.1875 2.609375 0.0820312 2.140625 -0.125 C 1.671875 -0.332031 1.300781 -0.640625 1.03125 -1.046875 C 0.757812 -1.453125 0.582031 -1.9375 0.5 -2.5 C 0.414062 -3.0625 0.429688 -3.6875 0.546875 -4.375 C 0.578125 -4.613281 0.613281 -4.832031 0.65625 -5.03125 C 0.707031 -5.238281 0.757812 -5.457031 0.8125 -5.6875 C 0.976562 -6.351562 1.203125 -6.960938 1.484375 -7.515625 C 1.773438 -8.078125 2.125 -8.5625 2.53125 -8.96875 C 2.945312 -9.375 3.425781 -9.6875 3.96875 -9.90625 C 4.519531 -10.132812 5.140625 -10.25 5.828125 -10.25 C 6.617188 -10.25 7.222656 -10.128906 7.640625 -9.890625 C 8.054688 -9.648438 8.378906 -9.359375 8.609375 -9.015625 L 8.71875 -9.578125 C 8.75 -9.710938 8.816406 -9.828125 8.921875 -9.921875 C 9.035156 -10.015625 9.15625 -10.0625 9.28125 -10.0625 L 11.125 -10.0625 C 11.257812 -10.0625 11.363281 -10.015625 11.4375 -9.921875 C 11.507812 -9.828125 11.535156 -9.710938 11.515625 -9.578125 L 9.59375 -0.484375 C 9.570312 -0.335938 9.503906 -0.21875 9.390625 -0.125 C 9.285156 -0.0390625 9.160156 0 9.015625 0 L 7.171875 0 C 7.035156 0 6.925781 -0.0390625 6.84375 -0.125 C 6.769531 -0.21875 6.742188 -0.335938 6.765625 -0.484375 L 6.921875 -1.140625 C 6.523438 -0.753906 6.097656 -0.4375 5.640625 -0.1875 C 5.179688 0.0625 4.570312 0.1875 3.8125 0.1875 Z M 4.90625 -2.125 C 5.394531 -2.125 5.8125 -2.234375 6.15625 -2.453125 C 6.5 -2.671875 6.773438 -2.945312 6.984375 -3.28125 C 7.203125 -3.625 7.363281 -3.988281 7.46875 -4.375 C 7.53125 -4.613281 7.585938 -4.851562 7.640625 -5.09375 C 7.691406 -5.34375 7.738281 -5.585938 7.78125 -5.828125 C 7.84375 -6.179688 7.835938 -6.515625 7.765625 -6.828125 C 7.703125 -7.148438 7.550781 -7.414062 7.3125 -7.625 C 7.082031 -7.832031 6.734375 -7.9375 6.265625 -7.9375 C 5.816406 -7.9375 5.429688 -7.828125 5.109375 -7.609375 C 4.785156 -7.398438 4.523438 -7.117188 4.328125 -6.765625 C 4.128906 -6.421875 3.960938 -6.039062 3.828125 -5.625 C 3.773438 -5.4375 3.726562 -5.238281 3.6875 -5.03125 C 3.644531 -4.820312 3.609375 -4.625 3.578125 -4.4375 C 3.523438 -4.019531 3.515625 -3.632812 3.546875 -3.28125 C 3.578125 -2.9375 3.695312 -2.65625 3.90625 -2.4375 C 4.125 -2.226562 4.457031 -2.125 4.90625 -2.125 Z M 4.90625 -2.125 "/></g></g></g><g fill="#222222" fill-opacity="1"><g transform="translate(102.571645, 20.806456)"><g><path d="M 0.484375 0 C 0.359375 0 0.253906 -0.0390625 0.171875 -0.125 C 0.0976562 -0.21875 0.0703125 -0.335938 0.09375 -0.484375 L 2.03125 -9.578125 C 2.050781 -9.703125 2.117188 -9.8125 2.234375 -9.90625 C 2.359375 -10.007812 2.484375 -10.0625 2.609375 -10.0625 L 4.5 -10.0625 C 4.644531 -10.0625 4.753906 -10.007812 4.828125 -9.90625 C 4.898438 -9.8125 4.921875 -9.703125 4.890625 -9.578125 L 4.71875 -8.796875 C 5.03125 -9.179688 5.421875 -9.488281 5.890625 -9.71875 C 6.359375 -9.945312 6.9375 -10.0625 7.625 -10.0625 L 8.640625 -10.0625 C 8.785156 -10.0625 8.890625 -10.015625 8.953125 -9.921875 C 9.015625 -9.828125 9.035156 -9.710938 9.015625 -9.578125 L 8.671875 -7.890625 C 8.640625 -7.765625 8.566406 -7.65625 8.453125 -7.5625 C 8.347656 -7.46875 8.222656 -7.421875 8.078125 -7.421875 L 6.40625 -7.421875 C 5.820312 -7.421875 5.335938 -7.257812 4.953125 -6.9375 C 4.566406 -6.613281 4.316406 -6.171875 4.203125 -5.609375 L 3.09375 -0.484375 C 3.070312 -0.335938 3.003906 -0.21875 2.890625 -0.125 C 2.785156 -0.0390625 2.664062 0 2.53125 0 Z M 0.484375 0 "/></g></g></g><g fill="#222222" fill-opacity="1"><g transform="translate(111.026377, 20.806456)"><g><path d="M 0.484375 0 C 0.359375 0 0.253906 -0.0390625 0.171875 -0.125 C 0.0976562 -0.21875 0.0703125 -0.335938 0.09375 -0.484375 L 2.03125 -9.578125 C 2.050781 -9.710938 2.117188 -9.828125 2.234375 -9.921875 C 2.359375 -10.015625 2.484375 -10.0625 2.609375 -10.0625 L 4.5625 -10.0625 C 4.695312 -10.0625 4.796875 -10.015625 4.859375 -9.921875 C 4.929688 -9.828125 4.957031 -9.710938 4.9375 -9.578125 L 3 -0.484375 C 2.96875 -0.335938 2.894531 -0.21875 2.78125 -0.125 C 2.675781 -0.0390625 2.5625 0 2.4375 0 Z M 2.90625 -11.609375 C 2.757812 -11.609375 2.648438 -11.648438 2.578125 -11.734375 C 2.503906 -11.828125 2.484375 -11.945312 2.515625 -12.09375 L 2.84375 -13.65625 C 2.863281 -13.78125 2.929688 -13.890625 3.046875 -13.984375 C 3.160156 -14.085938 3.285156 -14.140625 3.421875 -14.140625 L 5.453125 -14.140625 C 5.597656 -14.140625 5.703125 -14.085938 5.765625 -13.984375 C 5.835938 -13.890625 5.863281 -13.78125 5.84375 -13.65625 L 5.515625 -12.09375 C 5.484375 -11.945312 5.410156 -11.828125 5.296875 -11.734375 C 5.191406 -11.648438 5.070312 -11.609375 4.9375 -11.609375 Z M 2.90625 -11.609375 "/></g></g></g><g fill="#222222" fill-opacity="1"><g transform="translate(116.346861, 20.806456)"><g><path d="M 3.8125 0.1875 C 3.164062 0.1875 2.609375 0.0820312 2.140625 -0.125 C 1.671875 -0.332031 1.300781 -0.640625 1.03125 -1.046875 C 0.757812 -1.453125 0.582031 -1.9375 0.5 -2.5 C 0.414062 -3.0625 0.429688 -3.6875 0.546875 -4.375 C 0.578125 -4.613281 0.613281 -4.832031 0.65625 -5.03125 C 0.707031 -5.238281 0.757812 -5.457031 0.8125 -5.6875 C 0.976562 -6.351562 1.203125 -6.960938 1.484375 -7.515625 C 1.773438 -8.078125 2.125 -8.5625 2.53125 -8.96875 C 2.945312 -9.375 3.425781 -9.6875 3.96875 -9.90625 C 4.519531 -10.132812 5.140625 -10.25 5.828125 -10.25 C 6.617188 -10.25 7.222656 -10.128906 7.640625 -9.890625 C 8.054688 -9.648438 8.378906 -9.359375 8.609375 -9.015625 L 8.71875 -9.578125 C 8.75 -9.710938 8.816406 -9.828125 8.921875 -9.921875 C 9.035156 -10.015625 9.15625 -10.0625 9.28125 -10.0625 L 11.125 -10.0625 C 11.257812 -10.0625 11.363281 -10.015625 11.4375 -9.921875 C 11.507812 -9.828125 11.535156 -9.710938 11.515625 -9.578125 L 9.59375 -0.484375 C 9.570312 -0.335938 9.503906 -0.21875 9.390625 -0.125 C 9.285156 -0.0390625 9.160156 0 9.015625 0 L 7.171875 0 C 7.035156 0 6.925781 -0.0390625 6.84375 -0.125 C 6.769531 -0.21875 6.742188 -0.335938 6.765625 -0.484375 L 6.921875 -1.140625 C 6.523438 -0.753906 6.097656 -0.4375 5.640625 -0.1875 C 5.179688 0.0625 4.570312 0.1875 3.8125 0.1875 Z M 4.90625 -2.125 C 5.394531 -2.125 5.8125 -2.234375 6.15625 -2.453125 C 6.5 -2.671875 6.773438 -2.945312 6.984375 -3.28125 C 7.203125 -3.625 7.363281 -3.988281 7.46875 -4.375 C 7.53125 -4.613281 7.585938 -4.851562 7.640625 -5.09375 C 7.691406 -5.34375 7.738281 -5.585938 7.78125 -5.828125 C 7.84375 -6.179688 7.835938 -6.515625 7.765625 -6.828125 C 7.703125 -7.148438 7.550781 -7.414062 7.3125 -7.625 C 7.082031 -7.832031 6.734375 -7.9375 6.265625 -7.9375 C 5.816406 -7.9375 5.429688 -7.828125 5.109375 -7.609375 C 4.785156 -7.398438 4.523438 -7.117188 4.328125 -6.765625 C 4.128906 -6.421875 3.960938 -6.039062 3.828125 -5.625 C 3.773438 -5.4375 3.726562 -5.238281 3.6875 -5.03125 C 3.644531 -4.820312 3.609375 -4.625 3.578125 -4.4375 C 3.523438 -4.019531 3.515625 -3.632812 3.546875 -3.28125 C 3.578125 -2.9375 3.695312 -2.65625 3.90625 -2.4375 C 4.125 -2.226562 4.457031 -2.125 4.90625 -2.125 Z M 4.90625 -2.125 "/></g></g></g><g fill="#222222" fill-opacity="1"><g transform="translate(128.264745, 20.806456)"><g><path d="M 0.484375 0 C 0.359375 0 0.253906 -0.0390625 0.171875 -0.125 C 0.0976562 -0.21875 0.0703125 -0.335938 0.09375 -0.484375 L 2.03125 -9.578125 C 2.050781 -9.710938 2.117188 -9.828125 2.234375 -9.921875 C 2.359375 -10.015625 2.484375 -10.0625 2.609375 -10.0625 L 4.5 -10.0625 C 4.644531 -10.0625 4.753906 -10.015625 4.828125 -9.921875 C 4.898438 -9.828125 4.921875 -9.710938 4.890625 -9.578125 L 4.71875 -8.828125 C 5.132812 -9.234375 5.617188 -9.570312 6.171875 -9.84375 C 6.734375 -10.113281 7.367188 -10.25 8.078125 -10.25 C 8.921875 -10.25 9.601562 -10.078125 10.125 -9.734375 C 10.65625 -9.398438 11.007812 -8.90625 11.1875 -8.25 C 11.375 -7.59375 11.375 -6.800781 11.1875 -5.875 L 10.015625 -0.484375 C 9.992188 -0.335938 9.925781 -0.21875 9.8125 -0.125 C 9.707031 -0.0390625 9.585938 0 9.453125 0 L 7.390625 0 C 7.265625 0 7.160156 -0.0390625 7.078125 -0.125 C 7.003906 -0.21875 6.976562 -0.335938 7 -0.484375 L 8.125 -5.765625 C 8.28125 -6.484375 8.265625 -7.023438 8.078125 -7.390625 C 7.890625 -7.753906 7.460938 -7.9375 6.796875 -7.9375 C 6.128906 -7.9375 5.570312 -7.742188 5.125 -7.359375 C 4.675781 -6.984375 4.375 -6.453125 4.21875 -5.765625 L 3.09375 -0.484375 C 3.070312 -0.335938 3.007812 -0.21875 2.90625 -0.125 C 2.800781 -0.0390625 2.675781 0 2.53125 0 Z M 0.484375 0 "/></g></g></g><g fill="#222222" fill-opacity="1"><g transform="translate(140.500252, 20.806456)"><g><path d="M 2.9375 -7.578125 L 1.6875 -8.53125 C 1.59375 -8.59375 1.539062 -8.679688 1.53125 -8.796875 C 1.519531 -8.910156 1.539062 -9.015625 1.59375 -9.109375 C 1.59375 -9.117188 1.628906 -9.160156 1.703125 -9.234375 L 3 -10.34375 L 1.296875 -10.484375 C 1.242188 -10.492188 1.207031 -10.5 1.1875 -10.5 C 1.164062 -10.507812 1.148438 -10.515625 1.140625 -10.515625 C 1.046875 -10.546875 0.96875 -10.613281 0.90625 -10.71875 C 0.851562 -10.832031 0.84375 -10.945312 0.875 -11.0625 L 1.359375 -12.546875 C 1.378906 -12.648438 1.445312 -12.726562 1.5625 -12.78125 C 1.675781 -12.832031 1.78125 -12.847656 1.875 -12.828125 C 1.90625 -12.828125 1.957031 -12.804688 2.03125 -12.765625 L 3.484375 -11.890625 L 3.109375 -13.546875 C 3.097656 -13.578125 3.09375 -13.601562 3.09375 -13.625 C 3.09375 -13.65625 3.09375 -13.679688 3.09375 -13.703125 C 3.09375 -13.796875 3.132812 -13.890625 3.21875 -13.984375 C 3.300781 -14.078125 3.398438 -14.125 3.515625 -14.125 L 5.09375 -14.125 C 5.207031 -14.125 5.304688 -14.078125 5.390625 -13.984375 C 5.472656 -13.890625 5.515625 -13.796875 5.515625 -13.703125 C 5.515625 -13.679688 5.515625 -13.65625 5.515625 -13.625 C 5.515625 -13.601562 5.507812 -13.578125 5.5 -13.546875 L 5.109375 -11.875 L 6.578125 -12.765625 C 6.648438 -12.804688 6.703125 -12.828125 6.734375 -12.828125 C 6.835938 -12.847656 6.941406 -12.832031 7.046875 -12.78125 C 7.160156 -12.726562 7.226562 -12.648438 7.25 -12.546875 L 7.734375 -11.0625 C 7.765625 -10.945312 7.753906 -10.832031 7.703125 -10.71875 C 7.648438 -10.613281 7.570312 -10.546875 7.46875 -10.515625 C 7.457031 -10.515625 7.441406 -10.507812 7.421875 -10.5 C 7.398438 -10.5 7.363281 -10.492188 7.3125 -10.484375 L 5.609375 -10.328125 L 6.90625 -9.234375 C 6.976562 -9.160156 7.015625 -9.117188 7.015625 -9.109375 C 7.085938 -9.015625 7.113281 -8.910156 7.09375 -8.796875 C 7.082031 -8.679688 7.023438 -8.59375 6.921875 -8.53125 L 5.671875 -7.578125 C 5.566406 -7.523438 5.457031 -7.507812 5.34375 -7.53125 C 5.226562 -7.550781 5.132812 -7.609375 5.0625 -7.703125 C 5.050781 -7.710938 5.039062 -7.726562 5.03125 -7.75 C 5.019531 -7.769531 5 -7.789062 4.96875 -7.8125 L 4.296875 -9.40625 L 3.640625 -7.8125 C 3.628906 -7.789062 3.613281 -7.769531 3.59375 -7.75 C 3.570312 -7.726562 3.554688 -7.710938 3.546875 -7.703125 C 3.492188 -7.609375 3.40625 -7.550781 3.28125 -7.53125 C 3.15625 -7.507812 3.039062 -7.523438 2.9375 -7.578125 Z M 2.9375 -7.578125 "/></g></g></g><g fill="#222222" fill-opacity="1"><g transform="translate(149.109756, 20.806456)"><g><path d="M 0.875 1.625 C 0.757812 1.625 0.660156 1.582031 0.578125 1.5 C 0.503906 1.414062 0.46875 1.320312 0.46875 1.21875 C 0.46875 1.15625 0.476562 1.09375 0.5 1.03125 L 7.078125 -14.765625 C 7.117188 -14.867188 7.1875 -14.96875 7.28125 -15.0625 C 7.375 -15.15625 7.519531 -15.203125 7.71875 -15.203125 L 9.203125 -15.203125 C 9.316406 -15.203125 9.410156 -15.160156 9.484375 -15.078125 C 9.566406 -14.992188 9.609375 -14.898438 9.609375 -14.796875 C 9.609375 -14.742188 9.597656 -14.679688 9.578125 -14.609375 L 2.984375 1.1875 C 2.953125 1.269531 2.882812 1.363281 2.78125 1.46875 C 2.675781 1.570312 2.53125 1.625 2.34375 1.625 Z M 0.875 1.625 "/></g></g></g></svg>